<svg width="512" height="512" xmlns="http://www.w3.org/2000/svg" xmlns:xlink="http://www.w3.org/1999/xlink" xml:space="preserve" overflow="hidden"><defs><clipPath id="clip0"><rect x="384" y="104" width="512" height="512"/></clipPath><clipPath id="clip1"><rect x="385" y="105" width="510" height="510"/></clipPath><clipPath id="clip2"><rect x="385" y="105" width="510" height="510"/></clipPath><clipPath id="clip3"><rect x="385" y="105" width="510" height="510"/></clipPath></defs><g clip-path="url(#clip0)" transform="translate(-384 -104)"><g clip-path="url(#clip1)"><g clip-path="url(#clip2)"><g clip-path="url(#clip3)"><path d="M589.352 326.001C589.083 325.957 588.816 325.912 588.549 325.86 588.607 326.077 588.665 326.295 588.723 326.513 588.988 327.635 589.17 328.761 589.305 329.887 589.54 332.132 589.673 334.417 589.266 336.628 589.356 334.396 588.907 332.195 588.373 330.06 588.09 328.994 587.762 327.943 587.365 326.938 587.154 326.402 586.915 325.868 586.652 325.379 586.281 325.27 585.914 325.153 585.55 325.021 585.728 325.427 585.929 325.82 586.089 326.232 586.441 327.17 586.745 328.129 586.938 329.112 587.128 330.093 587.218 331.113 587.01 332.079 587.059 330.098 586.16 328.305 585.234 326.639 584.746 325.806 584.214 324.998 583.648 324.218 582.259 323.542 580.944 322.701 579.759 321.641 578.346 320.383 577.222 318.773 576.564 317.025 575.967 315.256 575.771 313.351 576.323 311.659 576.899 315.132 579.029 317.686 581.575 319.323 584.146 320.97 587.269 321.875 590.337 322.334 593.444 322.738 596.659 322.651 599.861 322.113 603.042 321.498 606.29 320.751 609.232 318.919 608.357 320.468 606.911 321.64 605.442 322.64 603.933 323.604 602.309 324.393 600.604 324.975 599.379 325.392 598.107 325.681 596.82 325.904 597.187 326.936 597.36 328.011 597.357 329.043 597.357 330.606 597.066 332.099 596.696 333.551 596.755 332.056 596.719 330.55 596.416 329.14 596.179 328.03 595.746 327.009 595.128 326.161 594.625 326.213 594.12 326.217 593.615 326.235 593.785 326.749 593.925 327.26 594.054 327.772 594.319 328.895 594.501 330.019 594.637 331.145 594.871 333.391 595.004 335.677 594.598 337.888 594.686 335.653 594.24 333.453 593.704 331.32 593.422 330.254 593.095 329.202 592.698 328.194 592.425 327.507 592.107 326.817 591.746 326.227 591.55 326.217 591.355 326.199 591.162 326.183 591.25 326.495 591.334 326.808 591.414 327.121 591.68 328.246 591.862 329.368 591.995 330.495 592.231 332.741 592.364 335.027 591.958 337.239 592.046 335.003 591.599 332.804 591.064 330.67 590.783 329.605 590.453 328.553 590.058 327.545 589.849 327.017 589.612 326.488 589.352 326.001M609.72 248.55C610.504 250.363 611.48 252.093 612.783 253.713 610.957 252.691 609.495 251.041 608.409 249.228 607.305 247.411 606.573 245.395 606.084 243.346 605.631 241.285 605.412 239.175 605.53 237.071 605.644 234.986 606.036 232.85 607.032 231.01 606.793 233.072 606.844 235.062 607.003 237.053 607.185 239.035 607.471 241.002 607.927 242.922 608.357 244.85 608.957 246.733 609.72 248.55M649.714 232.35C653.606 233.924 658.345 232.731 660.403 229.406 660.892 228.574 661.317 227.704 661.565 226.755 661.833 225.828 661.858 224.953 661.763 223.961 661.56 222.013 661.003 220.012 660.405 218.033 659.237 214.043 657.796 210.032 657.214 205.772 656.882 203.66 656.853 201.476 657.091 199.336 657.474 197.201 658.312 195.154 659.659 193.524 657.542 197.253 657.749 201.536 658.649 205.517 659.532 209.532 660.985 213.446 662.218 217.487 662.792 219.53 663.376 221.598 663.546 223.83 663.618 224.926 663.517 226.179 663.142 227.252 662.823 228.33 662.247 229.331 661.585 230.246 660.194 232.061 658.116 233.28 655.929 233.617 653.751 233.903 651.493 233.502 649.714 232.35M591.95 298.953 593.607 305.084C593.607 305.084 590.883 305.149 589.817 305.03 588.754 304.912 591.95 298.953 591.95 298.953M576.117 310.527C574.721 310.415 573.333 310.32 571.947 310.151 570.563 309.988 569.169 309.845 567.801 309.528 569.186 309.49 570.574 309.289 571.956 309.185L576.097 308.807C577.428 308.619 578.961 308.659 579.948 308.233 581.167 307.775 582.461 307.256 583.698 306.727L584.703 306.295 585.468 307.385C586.16 308.371 587.041 309.404 587.902 310.14 588.337 310.506 588.798 310.778 589.167 310.895 589.562 311.009 589.661 310.982 590.204 310.877 591.148 310.669 592.268 310.036 593.352 309.326 594.501 308.593 595.44 307.774 597.142 306.951L597.658 306.701 598.234 306.823C600.899 307.385 603.194 308.184 605.55 308.962 607.898 309.701 610.203 310.497 612.539 311.06 614.867 311.706 617.174 311.963 619.683 311.931 622.144 311.939 624.622 311.895 627.105 311.659 624.733 312.449 622.267 312.976 619.779 313.337 618.517 313.511 617.321 313.672 615.983 313.761 614.676 313.812 613.368 313.784 612.091 313.648 609.536 313.355 607.039 312.857 604.615 312.234 602.423 311.732 600.234 311.063 598.198 310.636 597.412 311.116 596.383 311.86 595.362 312.477 594.091 313.24 592.752 314.05 590.949 314.433 590.132 314.64 588.78 314.579 587.881 314.143 586.952 313.741 586.256 313.186 585.66 312.616 584.759 311.735 584.075 310.816 583.475 309.811 582.518 310.075 581.556 310.325 580.53 310.503 580.166 310.563 579.773 310.631 579.32 310.648 578.927 310.658 578.579 310.648 578.221 310.639 577.512 310.623 576.814 310.581 576.117 310.527M622.246 251.453C619.337 249.375 617.067 246.613 615.308 243.635 617.655 246.178 620.209 248.489 623.055 250.225 625.888 251.958 629.12 252.965 632.335 252.718 633.938 252.628 635.535 252.254 637.054 251.636 638.608 251.091 640.021 250.254 641.231 249.209 642.425 248.151 643.38 246.802 643.864 245.235 644.329 243.694 644.53 241.89 643.841 240.322 645.798 243.289 644.874 247.691 642.261 250.269 640.993 251.616 639.392 252.595 637.737 253.293 636.087 254.027 634.287 254.471 632.457 254.606 628.769 254.858 625.095 253.573 622.246 251.453M643.087 237.855C641.915 239.525 640.134 240.787 638.173 241.527 636.206 242.29 634.062 242.526 631.971 242.379 629.88 242.197 627.819 241.639 625.976 240.651 624.139 239.682 622.476 238.288 621.464 236.514 623.067 237.761 624.784 238.654 626.577 239.308 628.374 239.943 630.236 240.361 632.118 240.491 635.883 240.793 639.673 240.053 643.087 237.855M635.922 232.157C634.9 232.157 634.068 231.327 634.068 230.303 634.068 229.279 634.9 228.448 635.922 228.448 636.948 228.448 637.778 229.279 637.778 230.303 637.778 231.327 636.948 232.157 635.922 232.157M643.896 232.905C643.708 232.149 643.339 231.436 642.872 230.827 641.933 229.597 640.737 228.634 639.501 227.78 638.231 226.953 636.978 226.217 635.546 225.612L634.469 225.175 633.326 224.885C632.572 224.65 631.765 224.641 630.971 224.568 629.378 224.617 627.764 224.926 626.352 225.637 624.957 226.361 623.697 227.268 622.618 228.328 621.539 229.382 620.591 230.527 619.691 231.683 618.814 232.868 617.958 234.024 616.958 235.102 619.444 233.472 621.373 231.175 623.591 229.433 625.355 228.024 627.318 226.944 629.393 226.593 627.457 227.784 626.153 229.908 626.153 232.35 626.153 236.092 629.185 239.127 632.929 239.127 636.671 239.127 639.706 236.092 639.706 232.35 639.706 231.171 639.376 230.079 638.849 229.115 640.032 229.791 641.206 230.506 642.173 231.436 643.167 232.337 644.048 233.663 643.56 235.102 644.024 234.509 644.091 233.651 643.896 232.905M572.189 244.238C570.083 245.703 567.622 246.422 565.187 246.809 564.577 246.882 563.995 247 563.178 246.932 562.431 246.863 561.787 246.618 561.181 246.332 559.999 245.725 558.986 244.948 558.111 244.051 556.347 242.282 555.066 240.128 554.246 237.855 555.703 239.78 557.311 241.518 559.093 242.961 559.996 243.657 560.933 244.304 561.917 244.708 562.408 244.887 562.899 245.078 563.35 245.094 563.727 245.131 564.334 245.032 564.905 244.942 567.178 244.602 569.423 244.019 571.407 242.978 573.363 241.939 575.03 240.244 575.615 237.855 575.706 239.068 575.394 240.324 574.794 241.454 574.167 242.575 573.233 243.511 572.189 244.238M618.687 219.772C616.9 220.526 615.181 221.461 613.602 222.593 611.99 223.687 610.516 225.013 609.52 226.746 610.133 224.817 611.553 223.242 613.027 221.871 614.557 220.533 616.267 219.415 618.065 218.462 621.667 216.571 625.71 215.456 629.85 215.365 633.958 215.294 638.298 216.487 641.427 219.311 642.985 220.695 644.235 222.373 645.187 224.171 646.063 226.013 646.673 227.943 647.032 229.904 645.593 226.207 643.573 222.704 640.507 220.438 637.479 218.156 633.672 217.168 629.875 217.255 626.063 217.295 622.256 218.278 618.687 219.772M608.917 216.336C606.656 217.829 604.58 219.608 602.694 221.628L602.798 221.7C600.322 225.172 597.917 228.759 595.906 232.498 595.425 233.437 594.943 234.387 594.601 235.351 594.397 235.849 594.311 236.281 594.182 236.811 594.074 237.365 593.934 237.901 593.785 238.435 593.153 240.553 592.304 242.554 591.418 244.532 589.649 248.482 587.617 252.298 585.934 256.244 585.122 258.231 584.392 260.257 583.816 262.329 583.526 263.364 583.283 264.414 583.117 265.473 583.038 266.005 582.974 266.541 582.984 267.076 582.993 267.594 583.01 268.2 583.426 268.572 582.993 268.215 582.953 267.6 582.924 267.078 582.895 266.537 582.941 265.995 582.999 265.459 583.126 264.386 583.333 263.321 583.586 262.269 584.09 260.167 584.749 258.103 585.496 256.071 587.05 252.023 588.938 248.145 590.549 244.158 591.354 242.171 592.116 240.163 592.643 238.124 592.764 237.615 592.88 237.105 592.956 236.595 593.063 236.075 593.177 235.443 593.369 234.933 593.71 233.853 594.173 232.856 594.637 231.859 596.573 227.928 598.851 224.25 601.248 220.613L601.325 220.668C602.863 218.147 604.866 215.865 607.165 213.968 611.202 210.585 616.169 208.35 621.338 207.285 626.527 206.277 631.919 206.455 636.952 207.798 641.993 209.103 646.673 211.468 650.663 214.594 645.886 212.839 641.175 211.394 636.374 210.698 631.584 210.022 626.742 210.031 622.079 210.998 617.405 211.892 612.929 213.727 608.917 216.336M892.616 612.484 885.987 612.436C847.272 569.636 786.769 502.606 772.661 486.501 787.593 469.793 807.163 460.58 826.966 461.077L892.616 612.484ZM617.537 424.31C616.949 428.044 613.729 430.713 610.055 430.713 609.674 430.713 609.278 430.695 608.88 430.619 604.753 429.973 601.912 426.112 602.556 421.964L602.556 421.984C603.2 417.834 607.083 415.011 611.21 415.658 615.358 416.301 618.179 420.164 617.537 424.31M614.923 441.396C614.355 445.166 611.135 447.855 607.442 447.855 607.062 447.855 606.703 447.833 606.324 447.778 602.176 447.154 599.315 443.309 599.942 439.159 600.567 435.013 604.413 432.172 608.56 432.798 612.689 433.404 615.548 437.266 614.923 441.396M612.423 458.518C611.872 462.287 608.634 465.013 604.921 465.013 604.563 465.013 604.203 464.994 603.845 464.938 599.714 464.35 596.836 460.507 597.421 456.356 598.01 452.227 601.854 449.35 606.002 449.935 610.13 450.523 613.009 454.368 612.423 458.518M610.035 475.617C609.507 479.427 606.267 482.191 602.518 482.191 602.196 482.191 601.854 482.151 601.496 482.117 597.346 481.548 594.449 477.74 595.018 473.592 595.585 469.444 599.391 466.528 603.542 467.095 607.688 467.666 610.587 471.489 610.035 475.617M607.762 492.76C607.271 496.584 604.014 499.369 600.245 499.369 599.922 499.369 599.601 499.348 599.279 499.314 595.131 498.763 592.195 494.974 592.725 490.828 593.255 486.68 597.064 483.744 601.211 484.275 605.36 484.803 608.295 488.611 607.762 492.76M605.624 509.881C605.169 513.726 601.891 516.566 598.105 516.566 597.821 516.566 597.516 516.546 597.196 516.511 593.049 516.017 590.091 512.227 590.587 508.083 591.079 503.934 594.848 500.96 599.012 501.452 603.162 501.964 606.116 505.734 605.624 509.881M603.673 527.02C603.239 530.904 599.961 533.782 596.136 533.782 595.867 533.782 595.585 533.763 595.321 533.745 591.154 533.289 588.144 529.54 588.596 525.393 589.052 521.224 592.803 518.214 596.949 518.67 601.114 519.124 604.108 522.872 603.673 527.02M594.373 551.018C594.126 551.018 593.9 551.018 593.652 551 589.488 550.583 586.438 546.89 586.835 542.742 587.215 538.575 590.926 535.505 595.095 535.903 599.257 536.301 602.309 539.996 601.912 544.161 601.53 548.082 598.237 551.018 594.373 551.018M592.878 568.29C592.688 568.29 592.499 568.29 592.309 568.273 588.124 567.949 584.999 564.313 585.319 560.145 585.641 555.961 589.277 552.855 593.464 553.178 597.632 553.48 600.756 557.116 600.433 561.303 600.13 565.279 596.797 568.29 592.878 568.29M591.779 585.599C591.664 585.599 591.534 585.599 591.401 585.584 587.232 585.394 584.014 581.831 584.205 577.644 584.411 573.482 587.972 570.243 592.139 570.448 596.324 570.659 599.545 574.219 599.356 578.386 599.145 582.438 595.795 585.599 591.779 585.599M591.286 602.932C587.1 602.912 583.71 599.522 583.729 595.336 583.729 591.148 587.12 587.761 591.304 587.78 595.492 587.78 598.882 591.17 598.882 595.356 598.862 599.542 595.472 602.932 591.286 602.932M618.143 411.396C616.723 412.795 614.771 413.612 612.783 413.612 610.794 413.612 608.844 412.795 607.423 411.396 606.02 409.995 605.208 408.041 605.208 406.037 605.208 404.047 606.02 402.096 607.423 400.676 608.844 399.275 610.794 398.461 612.783 398.461 614.771 398.461 616.723 399.275 618.143 400.676 619.543 402.096 620.359 404.047 620.359 406.037 620.359 408.041 619.543 409.995 618.143 411.396M630.633 421.529 631.466 421.617 653.425 403.79C643.993 398.7 634.432 393.932 624.502 390.081 621.145 388.776 617.759 387.55 614.333 386.457 610.907 385.331 607.42 384.61 603.95 383.75 596.901 382.485 589.749 381.602 582.531 381.41 578.93 381.216 575.311 381.31 571.7 381.294 568.089 381.458 564.472 381.469 560.863 381.787 557.777 381.962 554.698 382.244 551.622 382.571L589.474 418.527 589.189 418.745C580.007 475.689 564.841 587.047 571.577 610.181L584.896 610.278C584.971 610.043 585.018 609.802 585.113 609.579 585.302 609.123 585.529 608.689 585.812 608.27 586.077 607.855 586.399 607.475 586.742 607.117 588.162 605.715 590.113 604.902 592.102 604.902 594.108 604.902 596.058 605.715 597.461 607.117 597.821 607.475 598.124 607.855 598.409 608.27 598.673 608.689 598.919 609.123 599.109 609.579 599.216 609.836 599.269 610.11 599.344 610.382L618.777 610.52C613.911 583.716 628.83 438.805 630.633 421.529M755.663 513.488 842.542 612.125 758.431 611.522C744.075 577.646 743.282 542.54 755.663 513.488M744.944 596.093C746.407 601.225 748.175 606.354 750.218 611.462L742.351 611.406C709.337 588.184 691.263 558.052 688.683 521.735 685.274 473.776 710.794 427.44 729.181 411.096L754.952 422.277C738.997 436.202 724.812 454.572 716.585 475.546 705.253 504.429 700.886 548.869 744.437 596.557L744.944 596.093ZM456.317 601.04 449.636 597.47 451.47 594.038 458.15 597.607 456.317 601.04ZM455.133 587.177 461.814 590.746 459.981 594.177 453.3 590.607 455.133 587.177ZM458.797 580.31 465.478 583.88 463.645 587.312 456.964 583.741 458.797 580.31ZM462.461 573.449 469.142 577.018 467.308 580.449 460.628 576.88 462.461 573.449ZM466.125 566.584 472.806 570.154 470.972 573.583 464.293 570.013 466.125 566.584ZM469.79 559.719 476.47 563.289 474.636 566.721 467.956 563.152 469.79 559.719ZM473.454 552.856 480.134 556.427 478.302 559.855 471.62 556.288 473.454 552.856ZM477.118 545.992 483.797 549.561 481.963 552.994 475.284 549.423 477.118 545.992ZM480.782 539.129 487.462 542.699 485.629 546.13 478.948 542.56 480.782 539.129ZM493.417 542.85C492.524 540.746 491.641 538.639 490.754 536.531L489.293 539.264 482.613 535.695 484.445 532.266 490.266 535.377C489.469 533.477 488.661 531.588 487.872 529.687L486.275 528.837 486.981 527.512C486.009 525.168 485.055 522.817 484.093 520.468L439.415 603.369 446.193 603.922 447.806 600.902 454.486 604.473 454.421 604.594 460.414 605.083 459.796 604.746 493.417 542.85ZM824.687 573.386 822.147 570.572 827.771 565.499 830.31 568.309 824.687 573.386ZM835.386 573.931 829.765 579.008 827.226 576.198 832.849 571.118 835.386 573.931ZM840.464 579.551 834.843 584.631 832.304 581.821 837.923 576.742 840.464 579.551ZM845.542 585.175 839.919 590.252 837.382 587.439 843.005 582.365 845.542 585.175ZM850.622 590.798 844.997 595.876 842.46 593.063 848.081 587.986 850.622 590.798ZM855.698 596.421 850.075 601.497 847.534 598.687 853.159 593.607 855.698 596.421ZM860.774 602.043 855.153 607.12 852.616 604.308 858.239 599.233 860.774 602.043ZM817.071 564.95 822.692 559.876 825.231 562.685 819.61 567.762 817.071 564.95ZM811.993 559.33 817.616 554.25 820.155 557.063 814.532 562.141 811.993 559.33ZM806.917 553.707 812.538 548.628 815.077 551.44 809.454 556.517 806.917 553.707ZM801.839 548.086 807.462 543.008 809.999 545.817 804.376 550.896 801.839 548.086ZM796.759 542.464 802.382 537.385 804.923 540.195 799.298 545.276 796.759 542.464ZM791.683 536.842 797.306 531.761 799.845 534.573 794.224 539.653 791.683 536.842ZM786.604 531.217 792.229 526.14 794.767 528.954 789.144 534.026 786.604 531.217ZM781.528 525.595 787.149 520.516 789.687 523.328 784.065 528.408 781.528 525.595ZM776.45 519.973 782.071 514.894 784.612 517.704 778.989 522.785 776.45 519.973ZM771.374 514.352 776.991 509.273 779.534 512.083 773.913 517.161 771.374 514.352ZM766.296 508.728 771.919 503.651 774.456 506.465 768.833 511.538 766.296 508.728ZM761.216 503.105 766.839 498.029 769.378 500.841 763.755 505.919 761.216 503.105ZM786.034 507.222C777.911 498.153 773.063 492.74 770.192 489.417 768.845 491.057 767.53 492.738 766.272 494.504 762.851 499.315 759.892 504.399 757.376 509.699L847.622 612.159 859.784 612.249 857.69 609.929 863.315 604.856 865.853 607.667 860.769 612.256 866.376 612.295 868.392 610.475 869.382 611.575 868.567 612.311 880.849 612.397C869.108 599.417 848.983 577.148 828.856 554.832 813.272 537.55 797.698 520.251 786.034 507.222M802.294 399.94 839.585 435.713 830.151 453.658C803.806 451.83 777.71 465.362 760.099 490.11 740.462 517.716 734.702 553.405 743.224 589.458 705.282 544.951 709.53 503.894 720.11 476.928 735.688 437.219 773.046 407.118 802.294 399.94M727.931 291.363C727.739 293.542 727.46 295.713 727.151 297.876 726.483 302.195 725.657 306.487 724.759 310.761 722.929 319.309 720.606 327.742 718.028 336.096 715.308 344.403 712.304 352.639 708.565 360.565 704.722 368.361 700.458 376.338 693.749 382.052 696.843 378.968 699.304 375.362 701.442 371.595 703.618 367.849 705.511 363.937 707.239 359.962 710.669 351.991 713.659 343.826 716.228 335.522 718.938 327.264 721.224 318.869 723.347 310.436 724.413 306.218 725.39 301.978 726.243 297.715 726.69 295.588 727.106 293.45 727.435 291.303 727.61 290.23 727.739 289.152 727.853 288.073 727.919 286.996 728.091 285.896 727.843 284.829 728.37 286.967 728.085 289.198 727.931 291.363M683.13 341.824C678.241 341.982 673.37 342.539 668.563 343.424 666.161 343.883 663.786 344.474 661.456 345.227 659.106 345.928 656.829 346.858 654.608 347.962 658.655 345.058 663.427 343.273 668.245 342.011 673.089 340.761 678.073 340.141 683.058 339.933 688.044 339.771 693.054 339.969 697.983 340.824 700.442 341.264 702.89 341.802 705.265 342.62 706.44 343.053 707.599 343.555 708.696 344.169 709.769 344.799 710.849 345.58 711.427 346.698 709.819 344.78 707.31 344.126 704.995 343.509 702.638 342.89 700.212 342.524 697.782 342.267 692.919 341.768 688.015 341.623 683.13 341.824M621.908 370.117C620.117 373.615 618.201 377.052 615.765 380.228 616.859 376.377 618.473 372.792 620.215 369.267 622.009 365.768 623.926 362.33 626.357 359.155 625.26 363.002 623.643 366.589 621.908 370.117M589.671 370.562C589.153 371.746 588.626 372.925 588.056 374.084 587.516 375.261 586.897 376.367 586.425 377.633 586.109 376.279 586.369 374.881 586.662 373.592 586.965 372.285 587.432 371.043 587.928 369.818 589 367.407 590.271 365.087 592.107 363.077 591.607 365.75 590.665 368.17 589.671 370.562M570.839 226.746C570.839 227.771 570.011 228.602 568.985 228.602 567.961 228.602 567.131 227.771 567.131 226.746 567.131 225.723 567.961 224.892 568.985 224.892 570.011 224.892 570.839 225.723 570.839 226.746M574.654 345.5C569.606 338.094 563.104 325.925 555.119 305.954 554.513 297.008 541.667 275.255 544.443 257.681 547.891 235.844 551.241 236.217 547.527 228.641 545.341 224.184 545.27 217.327 545.849 211.213L545.898 211.184C546.802 210.686 547.735 210.25 548.72 209.928 550.652 209.222 552.665 208.774 554.677 208.468 558.702 207.928 562.805 208.001 566.541 209.133 570.298 210.189 573.576 212.429 576.021 215.549 576.64 216.316 577.194 217.14 577.703 218 576.513 216.313 575.082 214.789 573.359 213.522 571.506 212.241 569.247 211.654 567.104 211.506 562.813 211.358 558.379 212.386 554.992 215.185 553.333 216.568 551.986 218.469 551.59 220.643 551.303 222.84 551.939 224.932 552.887 226.746 552.324 224.764 551.945 222.735 552.491 220.841 553.025 218.964 554.311 217.43 555.881 216.328 557.468 215.24 559.269 214.4 561.184 213.971 563.081 213.516 565.051 213.242 566.988 213.396 568.935 213.513 570.773 213.986 572.348 215.004 572.561 215.14 572.758 215.304 572.963 215.456 576.08 219.658 577.104 226.233 575.707 228.466 574.904 226.993 573.896 225.612 572.577 224.494 572.192 224.146 571.765 223.844 571.337 223.547 570.099 222.226 568.354 221.391 566.402 221.391 566.304 221.391 566.214 221.416 566.116 221.42 565.82 221.367 565.53 221.287 565.229 221.255 562.511 220.996 559.691 221.546 557.369 223.023 556.214 223.752 555.197 224.76 554.552 225.991 553.942 227.241 553.857 228.775 554.544 229.904 554.426 229.263 554.426 228.637 554.549 228.05 554.706 227.466 554.985 226.938 555.339 226.471 556.063 225.54 557.04 224.83 558.1 224.301 559.269 223.741 560.531 223.387 561.818 223.206 560.478 224.443 559.625 226.2 559.625 228.167 559.625 231.91 562.66 234.945 566.402 234.945 570.146 234.945 573.179 231.91 573.179 228.167 573.179 227.666 573.118 227.181 573.016 226.712 573.931 227.501 574.778 228.394 575.579 229.355 575.496 230.293 575.27 231.026 575.051 231.531 573.758 232.741 572.426 233.795 570.942 234.496 569.25 235.291 567.41 235.646 565.562 235.533 563.713 235.46 561.871 234.944 560.117 234.184 558.362 233.402 556.705 232.368 555.175 231.01 556.081 232.854 557.64 234.379 559.425 235.485 561.214 236.604 563.303 237.297 565.471 237.425 567.632 237.528 569.874 236.992 571.667 235.783 573.024 234.898 574.11 233.705 574.91 232.376 576.045 232.49 580.166 233.09 580.533 235.767 580 237.321 579.333 238.842 578.716 240.384 577.676 243.036 576.752 245.778 576.198 248.622 575.635 251.439 575.258 254.242 574.784 257.038 574.324 259.823 573.922 262.656 573.194 265.28 573.016 265.915 572.793 266.592 572.542 266.982 572.201 267.477 571.693 268.112 571.303 268.731 570.48 269.987 569.81 271.418 569.544 272.968 568.988 276.097 570.191 279.287 572.083 281.522 573.934 283.802 576.063 285.782 578.517 287.362 579.757 288.12 581.081 288.747 582.476 289.152 583.521 289.457 584.632 289.656 585.713 289.575 585.677 289.824 585.644 290.065 585.615 290.293 585.371 291.033 585.142 291.781 584.872 292.498 583.938 294.921 582.833 297.315 581.311 299.257 580.53 300.236 579.73 301.014 578.618 301.539 577.439 302.131 576.209 302.646 574.944 303.104 573.68 303.565 572.378 303.965 571.072 304.39 570.419 304.607 569.761 304.828 569.125 305.124 568.541 305.401 567.742 305.854 567.801 306.613 567.882 305.879 568.649 305.639 569.252 305.462 569.895 305.291 570.565 305.191 571.236 305.093 572.579 304.905 573.945 304.74 575.314 304.5 576.682 304.265 578.052 303.96 579.409 303.555 580.877 303.169 582.297 302.233 583.381 301.247 585.615 299.223 587.241 296.816 588.714 294.372 589.875 292.402 590.871 290.398 591.804 288.299 592.74 290.916 593.768 293.464 595.009 296.011 595.873 297.722 596.755 299.418 598.134 301.073L598.679 301.685 599.385 302.282C599.732 302.646 600.818 303.082 601.167 303.165 601.987 303.36 602.876 303.62 603.74 303.863L614.231 306.916 619.506 308.378C621.272 308.824 623.04 309.341 624.857 309.528 623.088 309.11 621.417 308.372 619.731 307.705L614.71 305.577 604.698 301.188C603.849 300.824 603.032 300.462 602.117 300.11 601.816 300.017 601.842 299.943 601.77 299.897 601.718 299.862 601.643 299.832 601.539 299.681L601.245 299.356 600.945 298.896C600.143 297.636 599.5 295.995 598.943 294.368 598.175 292.085 597.575 289.681 597.042 287.276 597.571 287.225 598.066 287.152 598.5 287.037 601.696 286.209 604.852 282.659 605.917 280.29 606.939 278.023 607.297 274.786 606.805 272.645 606.766 271.993 606.635 271.341 606.375 270.757 605.273 268.298 603.182 266.611 600.836 265.728 599.656 265.3 598.362 265.061 597.054 265.277 596.406 265.366 595.743 265.668 595.244 265.975 594.709 266.279 594.207 266.629 593.736 267.01 592.813 267.798 591.992 268.688 591.328 269.683 590.676 270.662 590.06 271.77 590.055 272.965 590.268 271.809 591.007 270.863 591.729 269.991 592.477 269.123 593.359 268.381 594.296 267.761 595.229 267.161 596.246 266.541 597.219 266.469 598.238 266.379 599.307 266.645 600.283 267.089 602.206 268 603.991 269.538 604.701 271.424 605.465 273.204 604.599 275.386 603.608 277.35 603.1 278.338 602.505 279.294 601.836 280.178 601.269 280.929 600.595 281.673 599.939 282.16 599.679 282.207 599.442 282.225 599.208 282.229 598.712 281.653 598.14 281.303 597.575 281.026 596.4 280.457 595.176 280.22 593.956 280.079 593.059 279.997 592.155 279.976 591.244 280.091L591.221 280.094C590.896 280.136 590.571 280.195 590.245 280.276 589.649 280.418 588.928 280.75 588.495 281.195 588.005 281.575 587.585 282.088 587.255 282.651 586.869 283.36 586.816 284.149 586.938 284.894 586.314 286.437 585.95 288.048 585.738 289.406 583.265 289.263 580.987 288.013 579.048 286.574 576.817 284.939 574.864 282.866 573.275 280.637 571.683 278.45 570.779 275.811 571.319 273.3 571.556 272.048 572.11 270.853 572.852 269.747 573.228 269.169 573.619 268.701 574.094 268.036 574.604 267.223 574.803 266.522 575.014 265.798 576.409 260.103 576.858 254.47 577.619 248.863 577.982 246.098 578.73 243.386 579.578 240.688 580.333 237.984 581.459 235.235 581.375 232.35L581.333 232.569C581.428 231.567 581.454 230.569 581.405 229.587 581.545 228.583 581.526 227.561 581.379 226.543 581.563 222.295 580.83 217.795 578.468 213.89 577.324 211.886 575.715 210.126 573.87 208.665 571.998 207.232 569.842 206.193 567.614 205.504 563.11 204.227 558.39 204.369 554.061 205.588 551.888 206.188 549.809 207.089 547.898 208.27 547.235 208.696 546.606 209.178 546.006 209.696 546.424 206.019 547.043 202.721 547.527 200.548 548.861 194.55 550.045 158.802 552.887 153.751 554.677 150.568 558.014 140.895 565.487 131.488 574.229 122.312 589.777 115.24 608.048 112.454 624.375 109.967 640.173 111.296 652.839 115.847 655.739 123.442 676.966 139.011 681.438 151.619 681.507 151.808 681.562 152.018 681.624 152.217 681.194 151.757 680.772 151.291 680.319 150.859 677.474 148.156 674.257 145.906 670.784 144.282 673.94 146.451 676.663 149.144 678.905 152.117 680.021 153.608 681.013 155.178 681.804 156.802 682.325 157.87 682.743 158.972 683.032 160.057 683.171 161.783 683.233 163.615 683.233 165.514 681.981 163.808 680.638 162.171 679.144 160.681 677.526 159.096 675.735 157.652 673.718 156.671 675.573 157.927 677.095 159.565 678.433 161.308 679.761 163.068 680.903 164.953 681.919 166.896 682.356 167.734 682.759 168.589 683.147 169.448 683.056 171.648 682.89 173.909 682.659 176.19 681.7 174.683 680.692 173.203 679.567 171.817 677.905 169.792 676.04 167.828 673.718 166.614 675.868 168.101 677.421 170.211 678.796 172.367 680.161 174.54 681.304 176.849 682.325 179.207L682.325 179.208C682.081 181.174 681.794 183.136 681.472 185.075 680.782 184.016 680.05 182.984 679.255 181.999 677.698 180.082 675.911 178.263 673.718 177.147 675.745 178.538 677.22 180.508 678.479 182.545 679.468 184.156 680.28 185.872 681.024 187.61 680.651 189.631 680.241 191.606 679.8 193.51 679.401 192.924 679.026 192.323 678.597 191.761 677.046 189.755 675.257 187.823 673.003 186.659 675.087 188.096 676.556 190.168 677.812 192.287 678.382 193.266 678.89 194.281 679.37 195.305 678.95 196.998 678.505 198.611 678.044 200.138 676.544 198.237 674.829 196.427 672.683 195.319 674.769 196.758 676.235 198.828 677.491 200.951 677.56 201.07 677.612 201.198 677.679 201.318 676.188 206.013 674.538 209.701 672.917 211.594 666.288 219.328 668.181 251.053 680.493 260.049 682.421 261.461 684.267 262.633 685.999 263.69 686.021 264.394 685.915 265.094 685.708 265.761 685.337 267.1 684.679 268.36 683.972 269.587 682.524 272.041 680.774 274.339 679.202 276.879 678.487 278.147 677.644 279.306 677.036 280.866 676.765 281.648 676.606 282.571 676.774 283.449 676.864 283.894 677.003 284.317 677.179 284.712 676.001 287.889 674.72 291.03 673.466 294.179L668.933 305.733C668.173 307.657 667.423 309.584 666.704 311.526 665.979 313.492 665.269 315.357 664.325 317.142 662.45 320.735 660.122 324.132 657.624 327.378 652.743 333.977 647.103 340.017 641.173 345.71 636.019 350.538 630.578 355.124 624.5 358.78 611.732 363.005 599.887 363.179 590.479 359.316 584.563 356.16 579.288 351.261 574.654 345.5M564.037 346.394C560.795 345.887 557.56 345.387 554.315 345.022 551.076 344.611 547.827 344.314 544.579 344.222 541.331 344.162 538.065 344.165 534.814 344.847 537.847 343.456 541.234 342.927 544.558 342.744 547.901 342.535 551.241 342.758 554.542 343.143 561.138 343.969 567.632 345.508 573.798 347.962L564.037 346.394ZM548.779 326.567C550.616 326.562 552.409 326.923 554.142 327.401 555.87 327.909 557.551 328.549 559.139 329.366 560.733 330.175 562.271 331.1 563.644 332.272 560.188 331.32 556.938 330.134 553.625 329.222 551.98 328.736 550.321 328.322 548.65 328.037 546.973 327.765 545.292 327.579 543.496 327.758 545.058 326.818 546.964 326.549 548.779 326.567M529.54 222.347C529.794 225.031 530.93 227.635 532.247 230.112 533.593 232.593 535.232 234.936 536.936 237.243L539.454 240.75C539.865 241.343 540.277 241.939 540.649 242.561 540.977 243.187 541.426 243.863 541.319 244.602 541.328 243.87 540.814 243.29 540.411 242.721 539.984 242.152 539.525 241.601 539.057 241.058L536.207 237.816C534.347 235.614 532.542 233.334 530.988 230.845 529.432 228.37 528.172 225.599 527.758 222.546 527.564 221.024 527.651 219.43 528.084 217.914L528.782 215.801 529.616 213.752C532.067 208.409 535.276 203.627 538.014 198.626 540.764 193.648 542.928 188.31 543.496 182.554 543.617 185.44 543.167 188.34 542.444 191.159 541.662 193.963 540.562 196.675 539.305 199.288 536.826 204.535 533.645 209.377 531.346 214.521L530.536 216.461 529.862 218.433C529.486 219.685 529.408 221.017 529.54 222.347M534.826 276.099C533.209 277.765 530.85 279.178 528.167 278.926 525.463 278.629 523.511 276.674 522.155 274.785 520.826 272.815 519.85 270.655 519.287 268.317 518.741 265.977 518.992 263.396 519.977 261.224 520.936 259.026 522.443 257.221 523.962 255.555 524.733 254.731 525.537 253.939 526.222 253.072 526.87 252.202 527.564 251.267 527.554 250.106 527.777 251.26 527.208 252.391 526.63 253.357 526.035 254.343 525.331 255.235 524.672 256.147 523.306 257.921 522.016 259.741 521.325 261.76 519.764 265.801 521.328 270.181 523.705 273.699 524.897 275.416 526.489 276.917 528.382 277.146 530.269 277.437 532.23 276.405 533.833 275.033 535.341 273.726 536.586 272.064 537.596 270.275 537.667 270.148 537.747 270.026 537.816 269.898 538.883 267.971 539.678 265.854 539.865 263.601 540.036 266.366 539.325 269.112 538.032 271.605 537.187 273.233 536.1 274.758 534.826 276.099M515.489 254.361C514.96 253.97 514.459 253.544 513.947 253.131L512.682 251.682C512.26 251.198 511.974 250.642 511.613 250.124 510.254 248.006 509.349 245.696 508.528 243.338 507.136 238.54 507.199 233.258 508.906 228.603 509.101 228.044 509.351 227.517 509.573 226.971 510.281 225.241 511.072 223.559 511.927 221.934 512.506 220.872 513.093 219.826 513.58 218.741 514.007 217.659 514.521 216.513 514.229 215.305 514.727 216.464 514.378 217.762 514.048 218.916 513.678 220.085 513.21 221.21 512.76 222.33 511.81 224.545 510.906 226.755 510.291 229.031 510.245 229.187 510.215 229.349 510.172 229.507 509.014 233.9 509.063 238.486 510.34 242.797 510.751 243.885 511.079 245.009 511.554 246.075 512.075 247.114 512.496 248.234 513.141 249.182 514.261 251.161 515.778 253.093 517.765 253.747 518.744 254.152 519.808 253.963 520.776 253.561 520.886 253.511 520.983 253.437 521.085 253.378 521.918 252.894 522.607 252.149 523.205 251.334 523.462 250.951 523.67 250.532 523.87 250.112 524.386 249.01 524.701 247.801 524.776 246.552 524.814 245.906 524.802 245.254 524.713 244.602 524.955 245.348 525.048 246.131 525.074 246.923 525.097 247.567 525.051 248.21 524.939 248.853 524.765 249.872 524.473 250.878 524 251.815 523.341 252.897 522.52 253.941 521.341 254.616 520.779 254.915 520.141 255.143 519.486 255.257 518.78 255.378 518.053 255.367 517.362 255.146 516.671 255.03 516.118 254.627 515.489 254.361M515.11 235.982C515.11 236.316 515.118 236.65 515.145 236.984 515.281 238.535 515.552 240.051 516.098 241.468 516.614 242.877 517.398 244.244 518.453 245.155 518.98 245.638 519.581 245.89 520.213 245.85 520.904 245.852 521.452 245.213 522.031 244.602 521.822 245.374 521.481 246.35 520.479 246.741 519.538 247.123 518.388 246.894 517.617 246.373 515.959 245.388 514.975 243.78 514.328 242.14 513.726 240.468 513.502 238.683 513.672 236.949 513.73 236.267 513.888 235.603 514.09 234.959 514.401 233.959 514.845 233.008 515.402 232.157 515.258 233.49 515.105 234.743 515.11 235.982M536.902 266.519C536.833 266.873 536.738 267.224 536.651 267.578 536.156 269.62 535.354 271.632 533.781 273.28 532.87 274.218 531.416 274.94 529.946 274.746 528.489 274.574 527.303 273.822 526.315 272.986 525.302 272.135 524.461 270.987 524.022 269.697 523.561 268.413 523.477 267.048 523.585 265.76 523.825 263.159 524.817 260.824 525.888 258.626 526.425 257.54 527.091 256.461 527.609 255.459 528.139 254.461 528.53 253.392 528.802 252.287 528.831 252.171 528.839 252.049 528.867 251.933 529.827 247.605 528.566 242.75 525.322 239.348 527.251 240.803 528.732 242.867 529.631 245.186 530.459 247.525 530.707 250.1 530.266 252.592 530.208 252.96 530.099 253.319 530.006 253.681 529.788 254.547 529.506 255.398 529.12 256.206L527.52 259.427C526.503 261.529 525.679 263.732 525.455 265.93 525.198 268.129 525.855 270.248 527.463 271.693 529.055 273.259 531.225 273.816 532.851 272.275 534.477 270.832 535.433 268.555 536.069 266.331L536.111 266.148C536.409 265.076 536.617 263.973 536.689 262.858 536.715 261.708 536.772 260.426 536.03 259.457 536.93 260.32 537.077 261.675 537.154 262.859 537.206 264.082 537.115 265.31 536.902 266.519M520.277 213.268C523.395 205.757 529.069 200.056 533.61 193.86 535.902 190.762 537.957 187.466 539.236 183.832 540.607 180.225 541.159 176.362 541.286 172.454 541.583 176.348 541.223 180.32 540.111 184.128 538.978 187.936 536.991 191.432 534.796 194.694 530.39 201.204 524.795 206.858 522.034 213.967 520.621 217.452 519.789 221.279 520.32 224.928 520.815 228.617 522.892 231.89 525.475 234.674 528.065 237.49 531.182 239.848 534.119 242.455 535.56 243.787 536.994 245.17 538.133 246.802 538.716 247.605 539.178 248.496 539.539 249.416 539.871 250.355 540.014 251.342 540.024 252.316 539.851 250.354 538.95 248.579 537.731 247.105 536.521 245.614 535.028 244.368 533.518 243.163 530.5 240.732 527.264 238.497 524.425 235.686 521.559 232.946 519.257 229.291 518.619 225.194 517.974 221.097 518.824 216.992 520.277 213.268M679.001 136.981C681.343 139.759 683.565 142.668 685.405 145.827 687.233 148.989 688.95 152.219 689.991 155.809 690.987 159.377 691.454 163.001 691.886 166.598 692.312 170.192 692.671 173.788 693.202 177.339 694.188 184.454 695.765 191.494 698.604 198.028 701.353 204.584 705.399 210.581 710.563 215.473 713.044 217.975 715.989 220.243 718.554 222.797 721.22 225.271 723.716 227.926 726.106 230.669 730.896 236.14 735.116 242.178 738.138 248.831 739.536 252.199 740.614 255.725 740.993 259.359 741.386 262.976 740.97 266.722 739.505 270.044 740.78 266.643 741.003 262.951 740.497 259.418 739.987 255.867 738.794 252.458 737.296 249.209 734.159 242.764 729.88 236.913 725.022 231.632 723.798 230.319 722.597 228.985 721.298 227.741 720.036 226.464 718.765 225.194 717.433 223.988 714.853 221.456 712.022 219.329 709.38 216.722 704.009 211.712 699.753 205.518 696.864 198.767 693.978 191.999 692.44 184.775 691.497 177.579 690.47 170.396 690.204 163.092 688.587 156.2 686.612 149.412 682.772 143.141 678.286 137.573 673.81 131.951 668.515 126.961 662.71 122.658 668.769 126.614 674.229 131.495 679.001 136.981M693.048 145.152C696.458 150.877 698.733 157.22 700.28 163.679 700.708 165.289 700.97 166.931 701.321 168.558L702.077 173.471C702.524 176.725 703.106 179.952 703.798 183.144 705.2 189.522 707.466 195.681 711.077 201.071 718.3 211.916 728.601 220.474 737.44 230.303 741.831 235.237 746.132 240.443 748.866 246.582 750.173 249.649 751.058 252.968 750.979 256.321 750.995 259.678 749.94 262.944 748.358 265.824 749.759 262.846 750.618 259.587 750.479 256.324 750.413 253.061 749.417 249.887 748.021 246.967 745.198 241.078 740.851 236.06 736.372 231.292 731.821 226.554 727.083 221.975 722.429 217.276 717.817 212.54 713.212 207.715 709.493 202.103 705.786 196.473 703.483 190.015 702.12 183.515 700.651 176.997 700.265 170.366 698.864 163.998 697.513 157.606 695.435 151.331 692.247 145.611 689.147 139.845 684.874 134.721 679.823 130.471 685.144 134.388 689.626 139.45 693.048 145.152M723.823 275.516C724.353 268.699 723.302 261.821 720.21 255.836 717.015 249.469 712.173 244.083 707.048 239.042 702.04 233.877 696.542 229.023 692.233 223.041 690.108 220.053 688.29 216.787 687.212 213.257 687.165 213.103 687.144 212.942 687.099 212.787L687.976 212.604C689.21 216.073 691.097 219.314 693.394 222.174 697.812 227.789 703.216 232.607 708.388 237.707 713.442 242.885 718.468 248.44 721.524 255.209 723.034 258.574 724.036 262.174 724.403 265.826 724.679 269.073 724.505 272.33 723.942 275.505 723.872 275.904 723.821 276.307 723.737 276.704 723.778 276.309 723.794 275.912 723.823 275.516M714.692 278.716C714.763 277.947 714.815 277.175 714.856 276.404 715.157 270.48 714.415 264.52 711.815 259.284 708.954 253.342 704.292 248.507 699.366 244.038 694.483 239.513 689.124 235.262 685.04 229.729 683.019 226.972 681.351 223.902 680.433 220.594 679.575 217.275 679.435 213.811 679.966 210.489 679.858 213.847 680.194 217.213 681.313 220.324 682.38 223.449 684.104 226.294 686.187 228.843 690.372 233.95 695.659 238.096 700.646 242.643 705.587 247.18 710.45 252.286 713.144 258.683 714.493 261.844 715.29 265.231 715.513 268.629 715.644 271.234 715.497 273.83 715.112 276.377 714.993 277.162 714.854 277.941 714.692 278.716M718.913 288.027C717.313 288.266 715.724 288.578 714.136 288.893 710.964 289.541 707.798 290.225 704.661 291.023 701.519 291.785 698.394 292.616 695.306 293.562 692.241 294.564 689.153 295.529 686.317 297.179 688.731 294.921 691.776 293.426 694.81 292.174 697.864 290.922 701.026 289.996 704.212 289.184 707.405 288.407 710.636 287.792 713.907 287.432 715.54 287.24 717.187 287.125 718.837 287.101 720.472 287.156 722.19 287.061 723.737 287.715 722.12 287.487 720.509 287.772 718.913 288.027M711.853 303.129C708.358 303.2 704.87 303.537 701.423 304.099 697.97 304.639 694.556 305.428 691.212 306.453 687.87 307.493 684.597 308.777 681.438 310.436 684.192 308.165 687.372 306.372 690.722 305.065 694.062 303.72 697.571 302.823 701.122 302.232 704.679 301.685 708.284 301.42 711.888 301.652 713.687 301.759 715.485 301.992 717.247 302.43 718.124 302.653 718.991 302.95 719.817 303.331 720.624 303.711 721.493 304.234 721.843 305.084 721.313 304.352 720.454 304.056 719.64 303.801 718.806 303.568 717.948 303.42 717.079 303.343 715.351 303.135 713.597 303.108 711.853 303.129M681.792 322.281C685.562 320.961 689.495 320.089 693.485 319.605 697.474 319.174 701.548 319.153 705.519 319.898 707.499 320.27 709.454 320.812 711.321 321.56 713.175 322.348 714.933 323.355 716.478 324.601 714.694 323.714 712.915 322.91 711.017 322.437 710.089 322.148 709.13 321.963 708.188 321.743 707.224 321.613 706.278 321.403 705.308 321.34 701.45 320.96 697.558 321.028 693.696 321.486 689.833 321.907 686.009 322.704 682.212 323.67 678.421 324.677 674.698 325.938 670.935 327.211 674.374 325.227 678.022 323.598 681.792 322.281M681.155 289.38 680.497 289.32C677.214 325.601 646.407 348.793 635.877 354.057 632.722 355.636 629.599 356.953 626.518 358.066 628.512 356.965 630.454 355.756 632.359 354.501 635.771 352.122 639.013 349.51 642.151 346.781 645.272 344.032 648.235 341.102 651.056 338.045 653.901 335.01 656.597 331.827 659.134 328.515 661.638 325.181 663.96 321.69 665.864 317.92 666.825 316.034 667.565 314.011 668.241 312.091 668.952 310.148 669.632 308.195 670.302 306.238 672.704 299.165 675.265 292.133 677.302 284.932 677.437 285.209 677.577 285.487 677.745 285.726 678.731 287.157 679.905 288.323 681.155 289.38M692.198 273.552 692.29 273.575 692.198 273.552M691.612 280.148C691.47 279.444 691.431 278.662 691.481 277.885 691.503 277.103 691.606 276.313 691.765 275.55 691.878 274.816 692.188 273.967 692.409 273.622L692.663 273.708C692.874 273.723 693.12 273.724 693.274 273.645 693.954 273.356 694.181 272.919 694.438 272.534 694.884 271.735 695.159 270.919 695.31 270.066 697.886 272.904 698.083 276.439 694.224 283.251 693.728 284.126 693.425 284.856 693.296 285.452 691.735 286.289 690.136 286.972 688.618 287.387 689.835 286.205 691.104 284.9 691.581 283.005 691.835 282.086 691.802 281.059 691.612 280.148M691.153 180.66C690.142 189.416 691.765 198.255 695.192 206.205 696.94 210.177 699.013 214.001 701.474 217.577 703.966 221.134 706.796 224.44 709.847 227.525 712.825 230.691 716.327 233.269 719.45 236.564 722.513 239.829 725.142 243.494 727.155 247.472 729.185 251.435 730.749 255.633 731.696 259.973 732.185 262.139 732.401 264.363 732.468 266.579 732.466 268.766 732.263 271.124 730.999 272.965 731.53 271.994 731.819 270.939 731.921 269.853 732.05 268.771 732.021 267.684 731.966 266.597 731.759 264.431 731.407 262.277 730.792 260.188 729.685 255.983 728.001 251.936 725.874 248.161 723.718 244.405 721.218 240.839 718.204 237.753 715.249 234.698 711.595 232.064 708.501 228.857 705.417 225.654 702.558 222.227 700.056 218.548 697.603 214.836 695.431 210.918 693.851 206.754 692.249 202.605 691.112 198.27 690.603 193.861 690.571 193.546 690.562 193.23 690.536 192.915L690.604 192.9C690.577 192.804 690.544 192.712 690.517 192.616 690.2 188.611 690.333 184.568 691.153 180.66M678.745 234.04C682.101 239.11 686.571 243.363 691.132 247.507 695.647 251.696 700.468 255.751 704.185 260.895 706.013 263.46 707.544 266.311 708.317 269.397 708.909 271.913 708.966 274.527 708.513 277.032 708.409 277.598 708.31 278.163 708.151 278.716 708.245 278.158 708.28 277.606 708.319 277.051 708.728 271.422 706.528 266.004 703.022 261.774 699.196 257.042 694.433 253.088 689.854 248.904 685.306 244.708 680.72 240.287 677.513 234.802 675.923 232.075 674.692 229.115 674.044 226.028 673.448 222.934 673.368 219.76 673.862 216.695 673.614 222.913 675.358 229 678.745 234.04M686.55 264.026C690.327 266.306 693.437 268.009 695.302 270.059 694.78 270.738 694.278 271.427 693.706 271.963 693.444 272.23 693.087 272.474 692.95 272.446 692.833 272.41 693.099 272.466 692.821 272.334 692.351 272.018 691.69 272.274 691.452 272.494 690.497 273.386 690.339 274.246 690.024 275.122 689.782 276.001 689.649 276.893 689.591 277.801 689.571 278.712 689.618 279.638 689.874 280.579 690.118 281.303 690.169 282.005 690.132 282.751 690.04 284.245 689.216 285.752 688.618 287.387 688.108 287.525 687.606 287.644 687.122 287.715 685.026 288.024 683.671 288.624 682.642 289.859 682.55 289.754 682.464 289.647 682.376 289.544L682.382 289.49 682.329 289.486C681.091 288.019 679.899 286.539 679.022 284.981 678.376 283.761 678.177 282.637 678.712 281.501 679.2 280.345 680.069 279.107 680.821 277.857 682.286 275.413 684.021 272.999 685.278 270.269 685.909 268.91 686.435 267.461 686.612 265.93 686.675 265.304 686.649 264.656 686.55 264.026M563.644 400.992C555.535 404.612 547.351 408.041 539.201 411.561L526.939 416.738 515.672 421.43C517.858 436.042 519.949 450.666 521.958 465.302 524.037 480.284 525.989 495.282 527.934 510.287 529.821 525.294 531.661 540.307 533.391 555.338 535.096 570.372 536.705 585.418 538.13 600.489 535.557 585.572 533.166 570.629 530.873 555.676 528.603 540.718 526.445 525.745 524.334 510.765 522.28 495.778 520.236 480.791 518.316 465.787 516.375 450.786 514.516 435.772 512.76 420.745L512.633 419.643 513.629 419.267 526.093 414.6 538.581 409.992C546.934 406.987 555.252 403.895 563.644 400.992M684.903 522.004C681.485 473.876 706.552 427.251 725.386 409.45L713.802 404.424 714.556 402.684 714.806 402.794 756.554 420.908C763.501 415.015 770.751 409.965 777.97 405.911L728.333 385.114 728.722 384.19 729.065 383.368 729.226 383.434 780.099 404.749C784.71 402.283 789.29 400.228 793.759 398.624L780.733 399.097 734.104 375.423C749.548 348.464 758.339 315.085 749.622 272.969 751.894 272.654 754.118 272.432 756.251 272.361 768.562 267.625 763.827 249.634 756.251 238.742 748.675 227.852 726.421 213.985 718.37 200.254 710.321 186.522 715.53 170.243 698.011 144.99 690.815 134.619 679.767 126.371 669.761 120.635 655.308 109.382 632.326 104.92 607.479 108.71 589.619 111.434 574.161 118.194 564.577 127.095 558.091 132.529 552.698 139.728 547.916 149.726 545.986 153.759 542.69 161.286 540.813 166.062 530.396 192.578 510.175 201.506 509.405 221.064 509.34 222.708 509.342 224.09 509.411 225.296 503.991 231.215 499.366 237.163 509.355 252.316 511.873 256.132 514.094 258.665 516.063 260.249 509.672 276.735 521.143 290.026 533.711 284.829 536.926 283.5 539.014 281.752 540.342 279.874 543.998 294.991 544.567 309.392 543.179 313.553 543.071 313.877 543.036 314.143 542.993 314.415 527.913 333.218 492.41 378.225 484.466 394.992 482.717 398.69 482.942 400.948 484.724 402.15L442.801 421.511 452.078 468.761 387 599.092 435.294 603.031 482.238 515.935C477.686 504.698 473.262 493.413 469.008 482.052 465.056 471.283 461.183 460.479 457.865 449.446 456.269 443.898 454.661 438.383 453.883 432.455 453.752 430.928 453.526 429.483 453.95 427.588L454.195 426.831C454.285 426.58 454.531 426.245 454.729 425.976 454.974 425.636 455.088 425.612 455.25 425.468L455.709 425.105C456.321 424.634 456.937 424.13 457.557 423.695 458.813 422.93 460.056 422.124 461.319 421.4L465.131 419.311C475.374 414.005 485.869 409.392 496.417 404.903 500.047 403.401 503.679 401.909 507.314 400.426 514.288 397.577 521.282 394.786 528.337 392.152 523.451 394.404 518.556 396.636 513.667 398.88 508.151 401.413 502.644 403.967 497.171 406.592 486.83 411.47 476.51 416.448 466.535 421.898L462.868 424.031C461.668 424.761 460.529 425.548 459.356 426.3 458.818 426.7 458.337 427.126 457.82 427.527L457.437 427.829C457.33 427.92 457.112 428.071 457.193 428.058L457.166 428.113C457.149 428.206 457.124 428.295 457.094 428.382 456.877 429.29 457.005 430.757 457.169 432.058 457.961 437.481 459.63 442.992 461.288 448.406 464.682 459.27 468.551 470.029 472.556 480.73 478.602 497.022 484.944 513.214 491.34 529.391L492.417 532.111C494.081 536.312 495.745 540.511 497.408 544.712L522.82 608.538C513.25 588.306 504.084 567.891 495.308 547.306L463.776 605.357 518.244 609.799 565.741 610.14C558.618 577.172 580.394 437.831 583.333 419.39L548.364 382.935C545.329 383.297 542.298 383.692 539.271 384.107 525.027 386.421 510.548 389.037 497.31 394.485L495.641 395.172 495.534 393.568C495.456 392.397 495.745 392.071 495.911 391.522 496.104 391.022 496.319 390.577 496.539 390.134 496.983 389.251 497.453 388.411 497.938 387.583 498.904 385.928 499.917 384.323 500.945 382.73 503.007 379.551 505.142 376.428 507.294 373.326 511.596 367.115 516.029 361.009 520.528 354.949 529.521 342.833 538.604 330.788 547.916 318.919 539.161 331.204 530.37 343.458 521.784 355.849 517.501 362.054 513.229 368.261 509.036 374.511 506.949 377.643 504.884 380.79 502.906 383.973 501.916 385.564 500.948 387.168 500.044 388.788 499.605 389.566 499.188 390.352 498.813 391.136 504.83 388.674 511.01 386.88 517.23 385.262 524.346 383.484 531.542 382.055 538.78 380.896 546.031 379.854 553.303 378.869 560.629 378.41 564.282 378.066 567.958 378.03 571.625 377.843 575.3 377.837 578.973 377.717 582.652 377.891 590.011 378.045 597.365 378.893 604.661 380.163 608.273 381.026 611.933 381.773 615.443 382.9 618.967 384.006 622.449 385.226 625.881 386.559 639.591 391.978 652.493 399.051 665.161 406.255 668.331 408.049 671.491 409.847 674.673 411.547 676.263 412.391 677.858 413.221 679.462 413.947 681.046 414.665 682.724 415.359 684.14 415.581 684.325 415.622 684.489 415.637 684.612 415.622 684.724 415.607 684.94 415.661 684.968 415.609L685.103 415.577C685.099 415.6 685.112 415.622 685.251 415.457L687.106 413.473 690.819 409.508 694.526 405.534 698.032 401.387C707.433 390.39 716.052 378.667 723.118 366.019 730.21 353.401 735.702 339.878 739.163 325.805 739.661 324.06 739.964 322.274 740.298 320.493 740.604 318.709 741.022 316.938 741.243 315.14L741.882 309.738C742.142 307.941 742.106 306.122 742.231 304.31 742.509 297.071 742.159 289.756 740.626 282.618 742.45 289.684 743.146 297.024 743.062 304.333 742.991 306.159 743.081 307.998 742.878 309.818L742.399 315.291C742.231 317.114 741.868 318.911 741.614 320.726 741.335 322.536 741.081 324.355 740.634 326.131 737.657 340.501 732.2 354.285 725.294 367.215 718.354 380.142 709.937 392.258 700.503 403.475L696.976 407.699 693.253 411.74 689.521 415.78 687.653 417.8C687.593 417.907 687.081 418.308 686.724 418.519 686.321 418.785 685.976 418.799 685.587 418.916 685.179 419.031 684.925 418.968 684.585 418.99 684.253 419.002 683.96 418.974 683.698 418.924 681.507 418.575 679.8 417.803 678.062 417.053 676.341 416.286 674.698 415.441 673.065 414.591 669.808 412.876 666.624 411.09 663.438 409.316 661.304 408.116 659.163 406.929 657.019 405.753L636.233 422.625C629.237 489.636 620.065 598.047 624.509 610.561L735.847 611.359C704.606 587.897 687.454 557.896 684.903 522.004" fill="#595959" fill-rule="nonzero" fill-opacity="1"/></g></g></g></g></svg>